<?xml version="1.0" encoding="utf-8"?>
<svg version="1.1" id="Ebene_1" xmlns="http://www.w3.org/2000/svg" xmlns:xlink="http://www.w3.org/1999/xlink" x="0px" y="0px"
	 viewBox="0 0 81.9 22.7" style="enable-background:new 0 0 81.9 22.7;" xml:space="preserve">
<style type="text/css">
	.st0{fill:#DE3919;}
</style>
<path class="st0" d="M20.8,3.2C22.5,1.3,25,0,27.8,0H34v4.5h-6.2c-1.4,0-2.6,0.6-3.5,1.6L13.2,19.4c-1.7,2-4.2,3.2-6.9,3.2H0v-4.5
	h6.2c1.4,0,2.6-0.6,3.5-1.6L20.8,3.2z"/>
<rect x="38.6" y="0" class="st0" width="4.8" height="22.7" />
<path class="st0" d="M61,3.2l3.8,4.6l3.8-4.6c1.7-2,4.2-3.2,6.9-3.2h6.2v4.5h-6.2c-1.4,0-2.6,0.6-3.5,1.6l-4.4,5.2l4.4,5.2
	c0.8,1,2.1,1.6,3.5,1.6h6.2v4.5h-6.2c-2.8,0-5.3-1.3-6.9-3.2l-3.8-4.6L61,19.4c-1.7,2-4.2,3.2-6.9,3.2h-6.2v-4.5h6.2
	c1.4,0,2.6-0.6,3.5-1.6l4.3-5.2l-4.3-5.2c-0.8-1-2.1-1.6-3.5-1.6h-6.2V0h6.2C56.9,0,59.4,1.3,61,3.2"/>
</svg>